<?xml version="1.0" encoding="UTF-8"?>
<svg xmlns="http://www.w3.org/2000/svg" viewBox="0 0 1920 1080" preserveAspectRatio="xMidYMid slice">
  <defs>
    <linearGradient id="base" x1="0" y1="0" x2="1" y2="1">
      <stop offset="0%" stop-color="#0f1733"/>
      <stop offset="55%" stop-color="#1d2a5c"/>
      <stop offset="100%" stop-color="#3a1d52"/>
    </linearGradient>

    <radialGradient id="glow1" cx="0.18" cy="0.22" r="0.55">
      <stop offset="0%" stop-color="#5ac8fa" stop-opacity="0.55"/>
      <stop offset="60%" stop-color="#5ac8fa" stop-opacity="0.0"/>
    </radialGradient>

    <radialGradient id="glow2" cx="0.82" cy="0.30" r="0.50">
      <stop offset="0%" stop-color="#ff6fae" stop-opacity="0.45"/>
      <stop offset="65%" stop-color="#ff6fae" stop-opacity="0.0"/>
    </radialGradient>

    <radialGradient id="glow3" cx="0.55" cy="0.95" r="0.65">
      <stop offset="0%" stop-color="#9b6bff" stop-opacity="0.50"/>
      <stop offset="70%" stop-color="#9b6bff" stop-opacity="0.0"/>
    </radialGradient>

    <radialGradient id="glow4" cx="0.92" cy="0.85" r="0.45">
      <stop offset="0%" stop-color="#ffd66b" stop-opacity="0.30"/>
      <stop offset="70%" stop-color="#ffd66b" stop-opacity="0.0"/>
    </radialGradient>

    <filter id="grain" x="0" y="0" width="100%" height="100%">
      <feTurbulence type="fractalNoise" baseFrequency="0.85" numOctaves="2" seed="7"/>
      <feColorMatrix values="0 0 0 0 1
                             0 0 0 0 1
                             0 0 0 0 1
                             0 0 0 0.06 0"/>
    </filter>
  </defs>

  <rect width="1920" height="1080" fill="url(#base)"/>
  <rect width="1920" height="1080" fill="url(#glow1)"/>
  <rect width="1920" height="1080" fill="url(#glow2)"/>
  <rect width="1920" height="1080" fill="url(#glow3)"/>
  <rect width="1920" height="1080" fill="url(#glow4)"/>

  <g opacity="0.28" stroke="#ffffff" stroke-width="1" fill="none">
    <path d="M0,720 C300,640 600,800 960,700 C1320,600 1620,780 1920,690"/>
    <path d="M0,820 C300,740 600,900 960,810 C1320,720 1620,880 1920,800"/>
    <path d="M0,920 C300,860 600,990 960,910 C1320,840 1620,970 1920,910"/>
  </g>

  <g fill="#ffffff" opacity="0.55">
    <circle cx="220"  cy="180"  r="1.6"/>
    <circle cx="1640" cy="120"  r="1.2"/>
    <circle cx="1280" cy="240"  r="1.8"/>
    <circle cx="380"  cy="320"  r="1.0"/>
    <circle cx="1820" cy="380"  r="1.4"/>
    <circle cx="100"  cy="500"  r="1.2"/>
    <circle cx="760"  cy="460"  r="1.6"/>
    <circle cx="1480" cy="540"  r="1.0"/>
    <circle cx="540"  cy="640"  r="1.4"/>
    <circle cx="1100" cy="160"  r="1.2"/>
  </g>

  <rect width="1920" height="1080" filter="url(#grain)"/>
</svg>
